<svg width="90" height="75" viewBox="0 0 90 75" fill="none" xmlns="http://www.w3.org/2000/svg">
<path d="M83.0662 34.7532C80.0089 33.7286 79.344 31.4964 78.4001 26.7196C78.0058 24.7424 78.4001 19.8212 74.9721 12.4082C71.5435 4.9951 63.1745 2.59463 63.1745 2.59463C58.8465 1.16764 54.3547 0.296352 49.8068 0.00174948C49.6046 -0.00849974 49.4027 0.0263805 49.2157 0.103855C49.0287 0.18133 48.8613 0.299453 48.7257 0.449639C48.5902 0.599826 48.4898 0.778301 48.4319 0.972099C48.374 1.16589 48.3601 1.37014 48.3911 1.56999C48.8341 4.19174 53.3509 4.31201 57.8051 5.72631C65.9189 8.29994 67.9559 12.9421 68.8033 14.7798C70.9945 19.5903 70.508 24.9301 68.6881 29.4231C66.2804 35.4122 62.6589 38.9287 59.9479 43.1572C54.6125 51.4891 54.4729 58.5173 56.2642 65.0789C58.2385 72.319 65.3219 74.06 69.2656 73.5407C79.7923 72.1505 83.3792 66.8539 83.779 66.5315C84.1788 66.2091 84.9977 66.3588 87.4727 64.7468C89.9477 63.1354 90.1261 60.1625 89.2253 58.7867C88.325 57.4109 88.3299 57.4109 87.9878 56.2323C87.8385 55.7079 88.7248 54.106 88.7248 54.106C88.7248 54.106 89.0566 52.7831 88.7248 52.1818C88.3469 51.6672 87.8725 51.2309 87.3284 50.8974L88.012 50.1037C88.6957 49.3099 89.2156 48.0832 89.1288 47.429C89.0421 46.7748 89.2544 46.3466 87.9586 45.2065C87.127 44.4204 86.5161 43.4302 86.1867 42.3346C86.1867 42.3346 87.9398 39.8091 87.6317 38.111C87.15 35.5613 86.1194 35.7827 83.0662 34.7532Z" fill="url(#paint0_linear_563:15)"/>
<path d="M22.773 48.2606C21.9232 48.2815 21.0876 48.4832 20.322 48.8523C19.5309 49.2186 18.8231 49.7425 18.2418 50.3917L3.94498 20.268C3.80434 19.9713 3.72379 19.6496 3.70797 19.3217C3.69215 18.9938 3.74136 18.6659 3.85278 18.3569C3.96421 18.0481 4.13564 17.7642 4.35723 17.5217C4.57882 17.2792 4.8462 17.0829 5.144 16.9439C5.47456 16.7804 5.83937 16.698 6.2082 16.7034C6.68367 16.7045 7.14901 16.8408 7.54981 17.0963C7.9506 17.3519 8.27023 17.7161 8.47139 18.1465L22.773 48.2606Z" fill="#2C3863"/>
<path d="M39.8439 63.4244C39.6787 63.891 39.3783 64.2982 38.9808 64.5934C38.5832 64.8891 38.1066 65.0594 37.6117 65.083C37.1169 65.1067 36.6261 64.983 36.202 64.7267C35.778 64.471 35.4399 64.0946 35.2308 63.6456L10.0802 10.6287C9.93603 10.3308 9.8528 10.0072 9.83545 9.67679C9.8181 9.34639 9.86687 9.01581 9.97904 8.70449C10.0844 8.38955 10.2527 8.09921 10.4737 7.85116C10.6947 7.60312 10.9638 7.40241 11.2647 7.26133C11.5964 7.10152 11.9607 7.02086 12.3289 7.02559C12.8103 7.02219 13.2824 7.15794 13.6883 7.41659C14.0941 7.67524 14.4164 8.04569 14.6162 8.48324L39.7427 61.5003C40.0256 62.1045 40.0619 62.7941 39.8439 63.4244Z" fill="#2C3863"/>
<path d="M40.3489 40.0547C39.4992 40.0767 38.6639 40.2784 37.8979 40.6464C37.0964 41.0173 36.3825 41.5534 35.8032 42.2194L23.6348 16.5215C23.4893 16.2233 23.4045 15.8992 23.3851 15.568C23.3658 15.2369 23.4123 14.9052 23.522 14.5921C23.6317 14.279 23.8024 13.9907 24.0243 13.7439C24.2461 13.497 24.5147 13.2966 24.8146 13.1541C25.1525 12.9923 25.5234 12.9117 25.898 12.9184C26.1855 12.9223 26.471 12.9676 26.7455 13.0531C27.3649 13.2839 27.8718 13.7437 28.1612 14.3375L40.3489 40.0547Z" fill="#2C3863"/>
<path d="M51.9919 47.7367C51.3858 48.0236 50.6906 48.0586 50.0586 47.834C49.4267 47.6095 48.9098 47.1437 48.6212 46.5389L31.0451 9.49764C30.8995 9.19985 30.8171 8.8752 30.8029 8.54408C30.7889 8.21295 30.8435 7.88249 30.9632 7.57342C31.0673 7.25847 31.2346 6.96813 31.4548 6.71997C31.675 6.4718 31.9436 6.27115 32.2441 6.13025C32.5785 5.9784 32.941 5.89811 33.3083 5.89453C33.5978 5.89453 33.8849 5.94668 34.1558 6.04847C34.4705 6.15346 34.7607 6.32091 35.009 6.54083C35.2573 6.76069 35.4584 7.02849 35.6004 7.32811L53.1765 44.3934C53.3187 44.6906 53.4008 45.0129 53.4182 45.3418C53.4356 45.6707 53.388 45.9998 53.2779 46.3103C53.1679 46.6209 52.9977 46.9067 52.777 47.1514C52.5563 47.3961 52.2896 47.595 51.9919 47.7367Z" fill="#2C3863"/>
<path d="M53.4666 33.9793L44.1893 14.6753C43.8985 14.0742 43.8579 13.3824 44.0763 12.7514C44.2946 12.1204 44.7542 11.6014 45.3546 11.3079C45.6938 11.1552 46.0612 11.0749 46.4332 11.0723C46.9097 11.0718 47.3763 11.2074 47.7781 11.4631C48.1799 11.7188 48.5002 12.0839 48.7013 12.5154L57.9593 31.8434C58.1092 32.1404 58.1982 32.4644 58.2211 32.7962C58.2439 33.1282 58.2001 33.4612 58.0923 33.776C57.9845 34.0907 57.8148 34.3807 57.5932 34.629C57.3716 34.8773 57.1026 35.0789 56.8019 35.2218C56.5012 35.3648 56.175 35.4463 55.8424 35.4616C55.5097 35.4768 55.1774 35.4255 54.8649 35.3107C54.5524 35.1958 54.266 35.0197 54.0226 34.7927C53.7791 34.5658 53.5835 34.2924 53.4474 33.989L53.4666 33.9793Z" fill="#2C3863"/>
<path d="M58.8196 22.6108L56.5083 17.7184C56.2218 17.1154 56.1855 16.4239 56.4071 15.7942C56.5173 15.4824 56.6898 15.1963 56.9141 14.9531C57.1385 14.71 57.4099 14.515 57.7121 14.38C58.0417 14.2121 58.4064 14.1248 58.7763 14.125C59.2512 14.1283 59.7156 14.2655 60.116 14.5209C60.5164 14.7762 60.8363 15.1392 61.0395 15.5682L63.3556 20.4508C63.6425 21.0518 63.6783 21.7418 63.4557 22.3693C63.233 22.9968 62.7702 23.5102 62.1684 23.7966C61.5672 24.083 60.8763 24.119 60.2483 23.8966C59.6202 23.6742 59.1064 23.2117 58.8196 22.6108Z" fill="#2C3863"/>
<path d="M14.6137 59.6051C14.0093 59.8881 13.3183 59.9244 12.6876 59.7061C12.0679 59.4737 11.56 59.0145 11.267 58.4216L0.2409 35.8426C0.0996655 35.5452 0.0187752 35.223 0.00289889 34.8943C-0.0129775 34.5656 0.0364746 34.237 0.1484 33.9275C0.260326 33.618 0.432508 33.3337 0.655006 33.091C0.877508 32.8483 1.14591 32.6521 1.44474 32.5136C1.76895 32.3494 2.1262 32.2606 2.48967 32.2539C2.9673 32.2565 3.43457 32.3932 3.83816 32.6484C4.24175 32.9035 4.5654 33.2669 4.77215 33.6971L15.7982 56.2761C15.9426 56.5739 16.026 56.8976 16.0433 57.228C16.0607 57.5585 16.0118 57.8891 15.8994 58.2004C15.6697 58.8177 15.2086 59.3214 14.6137 59.6051Z" fill="#2C3863"/>
<path d="M49.6393 63.5839C49.8772 61.5526 49.5249 59.4953 48.6246 57.6581L48.6185 57.6455L46.961 54.1123L45.1713 50.2675L39.0484 37.4209C38.7895 37.041 38.4254 36.7442 38.0001 36.5674L37.9782 36.5579C37.6644 36.4167 37.3242 36.3431 36.98 36.3419H36.974C36.6195 36.3382 36.2688 36.4148 35.9482 36.566C35.3528 36.8481 34.8925 37.3529 34.6666 37.9714C34.4413 38.5887 34.4677 39.2697 34.74 39.8677L39.6443 50.1975L40.6391 52.3533L40.641 52.3574L43.9165 59.3536C44.4883 60.5439 44.7536 61.858 44.6884 63.1767L44.6875 63.1918C44.6028 64.4378 44.194 65.6401 43.5018 66.6801L43.4907 66.6964C43.3836 66.8492 43.271 66.9976 43.153 67.1413C42.4454 68.0018 41.5475 68.6908 40.527 69.1508C39.5491 69.612 38.483 69.8556 37.4018 69.8665H37.3864C37.1738 69.8647 36.9615 69.852 36.7503 69.8289C35.4945 69.7089 34.296 69.2459 33.2855 68.4915C32.2188 67.703 31.3668 66.657 30.8095 65.4541L22.5321 47.7623L21.6956 45.9626C21.6466 45.8931 21.6106 45.8221 21.5848 45.754C21.3368 45.3062 20.9456 44.9535 20.4728 44.753L20.4572 44.7462C20.1442 44.6058 19.8052 44.5321 19.462 44.5298C19.0629 44.5335 18.6706 44.633 18.318 44.82C17.964 45.0078 17.6606 45.2781 17.4337 45.6081C17.2067 45.9381 17.0628 46.318 17.0144 46.7154C16.9659 47.1129 17.0142 47.5161 17.1552 47.891L17.2771 48.2151L17.2715 48.2271L18.04 49.8898L18.042 49.8943L26.517 67.9769C27.3526 69.8465 28.697 71.444 30.3972 72.5875C32.0631 73.6911 33.9963 74.325 35.9926 74.4213H36.674C38.6375 74.3989 40.5738 73.9426 42.34 73.0851L42.3654 73.0723C44.372 72.1821 46.1214 70.801 47.4516 69.0557C48.6615 67.4643 49.4174 65.5747 49.6388 63.5888L49.6393 63.5839Z" fill="#2C3863"/>
<defs>
<linearGradient id="paint0_linear_563:15" x1="48.5302" y1="83.2078" x2="83.3663" y2="36.814" gradientUnits="userSpaceOnUse">
<stop stop-color="#ED4D5B"/>
<stop offset="1" stop-color="#F9923B"/>
</linearGradient>
</defs>
</svg>
