<svg width="148" height="123" viewBox="0 0 148 123" fill="none" xmlns="http://www.w3.org/2000/svg">
<path d="M136.932 57.3469C131.892 55.6562 130.796 51.9729 129.24 44.0905C128.59 40.828 129.24 32.7074 123.589 20.475C117.937 8.24252 104.141 4.28146 104.141 4.28146C97.0064 1.92675 89.6017 0.489016 82.1047 0.00288685C81.7714 -0.0140256 81.4385 0.0435311 81.1303 0.171374C80.822 0.299217 80.5461 0.494134 80.3226 0.741959C80.0991 0.989785 79.9336 1.28429 79.8382 1.60408C79.7428 1.92386 79.7198 2.26089 79.7709 2.59067C80.5012 6.91688 87.9471 7.11533 95.2897 9.4491C108.665 13.6959 112.023 21.3561 113.42 24.3884C117.032 32.3264 116.23 41.1376 113.23 48.5516C109.261 58.4344 103.291 64.2371 98.8221 71.2146C90.0268 84.9632 89.7966 96.5606 92.7495 107.388C96.0041 119.335 107.681 122.208 114.182 121.351C131.535 119.057 137.448 110.317 138.107 109.785C138.766 109.253 140.116 109.5 144.196 106.84C148.276 104.181 148.57 99.2754 147.085 97.0051C145.601 94.7349 145.609 94.7349 145.045 92.7901C144.799 91.9248 146.26 89.2815 146.26 89.2815C146.26 89.2815 146.807 87.0985 146.26 86.1063C145.637 85.2571 144.855 84.5372 143.958 83.9868L145.085 82.6771C146.212 81.3673 147.069 79.3431 146.926 78.2635C146.783 77.184 147.133 76.4775 144.997 74.5962C143.626 73.2991 142.619 71.6651 142.076 69.8572C142.076 69.8572 144.966 65.6898 144.458 62.8877C143.664 58.6805 141.965 59.0457 136.932 57.3469Z" fill="url(#paint0_linear_568:87)"/>
<path d="M37.5415 79.6369C36.1406 79.6713 34.7631 80.0041 33.501 80.6133C32.197 81.2177 31.0301 82.0821 30.0718 83.1534L6.50393 33.4457C6.27209 32.956 6.13931 32.4253 6.11323 31.8841C6.08715 31.343 6.16827 30.802 6.35195 30.2922C6.53563 29.7825 6.81823 29.3141 7.18352 28.914C7.54881 28.5138 7.98957 28.1898 8.48049 27.9605C9.02541 27.6907 9.62679 27.5547 10.2348 27.5636C11.0186 27.5654 11.7857 27.7903 12.4464 28.212C13.1071 28.6337 13.634 29.2348 13.9656 29.945L37.5415 79.6369Z" fill="#2C3863"/>
<path d="M65.681 104.657C65.4088 105.427 64.9135 106.099 64.2582 106.586C63.6028 107.074 62.8172 107.355 62.0014 107.394C61.1856 107.433 60.3766 107.229 59.6775 106.806C58.9785 106.384 58.4211 105.763 58.0764 105.022L16.6163 17.5378C16.3787 17.0462 16.2415 16.5122 16.2129 15.967C16.1843 15.4218 16.2647 14.8763 16.4496 14.3626C16.6233 13.8429 16.9007 13.3638 17.265 12.9545C17.6293 12.5452 18.073 12.214 18.569 11.9812C19.1158 11.7175 19.7163 11.5844 20.3233 11.5922C21.1169 11.5866 21.8951 11.8106 22.5642 12.2374C23.2332 12.6642 23.7645 13.2755 24.0939 13.9975L65.5143 101.482C65.9806 102.479 66.0404 103.617 65.681 104.657Z" fill="#2C3863"/>
<path d="M66.5143 66.0947C65.1137 66.131 63.7366 66.4637 62.4739 67.071C61.1527 67.683 59.9759 68.5676 59.0209 69.6667L38.9616 27.262C38.7218 26.7699 38.5819 26.2352 38.55 25.6887C38.5181 25.1423 38.5948 24.5949 38.7756 24.0783C38.9564 23.5616 39.2378 23.0859 39.6036 22.6786C39.9693 22.2713 40.4121 21.9406 40.9064 21.7054C41.4634 21.4385 42.0749 21.3054 42.6924 21.3164C43.1664 21.3229 43.6369 21.3977 44.0895 21.5387C45.1105 21.9196 45.9461 22.6784 46.4233 23.6581L66.5143 66.0947Z" fill="#2C3863"/>
<path d="M85.7085 78.7716C84.7093 79.2449 83.5632 79.3027 82.5215 78.9321C81.4798 78.5616 80.6276 77.793 80.1519 76.795L51.1782 15.6725C50.9381 15.1811 50.8023 14.6454 50.779 14.099C50.7558 13.5526 50.8458 13.0073 51.0432 12.4973C51.2148 11.9776 51.4905 11.4985 51.8536 11.089C52.2166 10.6795 52.6594 10.3484 53.1547 10.1159C53.706 9.86533 54.3035 9.73284 54.909 9.72693C55.3862 9.72693 55.8595 9.81298 56.3061 9.98094C56.8249 10.1542 57.3033 10.4305 57.7126 10.7934C58.1218 11.1562 58.4534 11.5981 58.6875 12.0925L87.6612 73.2547C87.8956 73.7451 88.031 74.2769 88.0597 74.8197C88.0883 75.3624 88.0098 75.9055 87.8284 76.4179C87.647 76.9303 87.3665 77.4019 87.0027 77.8058C86.6389 78.2096 86.1991 78.5378 85.7085 78.7716Z" fill="#2C3863"/>
<path d="M88.137 56.0689L72.8436 24.215C72.3643 23.223 72.2973 22.0815 72.6573 21.0402C73.0172 19.999 73.7749 19.1426 74.7646 18.6584C75.3238 18.4064 75.9294 18.2739 76.5427 18.2695C77.3281 18.2688 78.0973 18.4925 78.7597 18.9145C79.4221 19.3364 79.9501 19.9388 80.2815 20.6509L95.5432 52.5444C95.7903 53.0345 95.937 53.5691 95.9747 54.1167C96.0123 54.6644 95.9401 55.214 95.7624 55.7334C95.5847 56.2527 95.3049 56.7313 94.9396 57.141C94.5743 57.5507 94.1308 57.8833 93.6352 58.1192C93.1395 58.3551 92.6018 58.4896 92.0534 58.5148C91.5051 58.54 90.9572 58.4553 90.4421 58.2658C89.9269 58.0762 89.4548 57.7857 89.0535 57.4111C88.6522 57.0366 88.3298 56.5856 88.1053 56.0848L88.137 56.0689Z" fill="#2C3863"/>
<path d="M96.9646 37.3116L93.1544 29.2386C92.6822 28.2436 92.6223 27.1024 92.9877 26.0634C93.1693 25.5489 93.4537 25.0767 93.8235 24.6755C94.1933 24.2743 94.6408 23.9525 95.1389 23.7297C95.6822 23.4528 96.2834 23.3086 96.8932 23.309C97.6761 23.3145 98.4417 23.5409 99.1017 23.9622C99.7617 24.3835 100.289 24.9825 100.624 25.6904L104.442 33.7474C104.915 34.739 104.974 35.8777 104.607 36.9131C104.24 37.9485 103.477 38.7957 102.485 39.2683C101.494 39.7409 100.355 39.8003 99.3198 39.4333C98.2844 39.0664 97.4373 38.3032 96.9646 37.3116Z" fill="#2C3863"/>
<path d="M24.0903 98.3554C23.094 98.8225 21.9548 98.8823 20.9151 98.5221C19.8936 98.1387 19.0564 97.3809 18.5734 96.4026L0.397117 59.1444C0.164296 58.6538 0.0309504 58.122 0.00477873 57.5796C-0.021393 57.0372 0.0601274 56.495 0.244634 55.9843C0.42914 55.4736 0.712978 55.0045 1.07976 54.604C1.44655 54.2036 1.88901 53.8798 2.38162 53.6513C2.91607 53.3802 3.50498 53.2337 4.10416 53.2227C4.89151 53.2269 5.6618 53.4525 6.32711 53.8736C6.99242 54.2946 7.52594 54.8943 7.86677 55.6041L26.043 92.8623C26.281 93.3537 26.4184 93.8878 26.447 94.433C26.4756 94.9783 26.395 95.5238 26.2097 96.0375C25.8311 97.0561 25.071 97.8873 24.0903 98.3554Z" fill="#2C3863"/>
<path d="M81.8275 104.92C82.2197 101.568 81.639 98.1732 80.1548 95.1417L80.1448 95.1208L77.4124 89.2906L74.4622 82.9462L64.3687 61.7479C63.942 61.1209 63.3417 60.6312 62.6406 60.3395L62.6045 60.3238C62.0872 60.0908 61.5265 59.9693 60.959 59.9674L60.9492 59.9674C60.3648 59.9612 59.7866 60.0876 59.2581 60.3371C58.2766 60.8026 57.5178 61.6357 57.1455 62.6563C56.774 63.6749 56.8175 64.7986 57.2664 65.7853L65.351 82.8308L66.991 86.3881L66.9941 86.3949L72.3937 97.9394C73.3362 99.9036 73.7736 102.072 73.6661 104.248L73.6646 104.273C73.525 106.329 72.8512 108.313 71.71 110.029L71.6917 110.056C71.5152 110.308 71.3295 110.553 71.135 110.79C69.9686 112.21 68.4884 113.347 66.8062 114.106C65.1941 114.867 63.4367 115.269 61.6543 115.287L61.6289 115.287C61.2785 115.284 60.9286 115.263 60.5803 115.225C58.5103 115.027 56.5345 114.263 54.8687 113.018C53.1103 111.717 51.7058 109.991 50.7871 108.006L37.1421 78.8124L35.7631 75.8427C35.6823 75.728 35.6229 75.6108 35.5804 75.4984C35.1716 74.7595 34.5267 74.1775 33.7473 73.8467L33.7217 73.8355C33.2056 73.6038 32.6468 73.4822 32.0811 73.4784C31.4232 73.4845 30.7764 73.6487 30.1952 73.9573C29.6117 74.2671 29.1115 74.7132 28.7374 75.2577C28.3632 75.8023 28.1261 76.4291 28.0462 77.0849C27.9663 77.7408 28.0459 78.4062 28.2783 79.0247L28.4793 79.5595L28.47 79.5794L29.7369 82.3231L29.7403 82.3305L43.7111 112.169C45.0885 115.254 47.3047 117.89 50.1075 119.777C52.8536 121.598 56.0405 122.644 59.3314 122.803H60.4546C63.6914 122.766 66.8833 122.013 69.7948 120.598L69.8367 120.577C73.1445 119.108 76.0284 116.829 78.2212 113.949C80.2157 111.323 81.4617 108.205 81.8267 104.928L81.8275 104.92Z" fill="#2C3863"/>
<defs>
<linearGradient id="paint0_linear_568:87" x1="80.0002" y1="137.303" x2="137.5" y2="60.8027" gradientUnits="userSpaceOnUse">
<stop stop-color="#ED4D5B"/>
<stop offset="1" stop-color="#F9923B"/>
</linearGradient>
</defs>
</svg>
